# xmcd CD database file
#
# Track frame offsets:
#	150
#	15060
#	28127
#	45720
#	58540
#	77897
#	94890
#	106597
#	120165
#	131435
#
# Disc length: 1995 seconds
#
# Revision: 0
# Processed by: cddbd v1.4PL0 Copyright (c) Steve Scherf et al.
# Submitted via: CDex 1.50
#
DISCID=6b07c90a
DTITLE=Varié - Country Centre-Ville
DYEAR=1992
DGENRE=Country
TTITLE0=Je reviens - Renée Martel
TTITLE1=Je chante à Cheval (Hommage à Willie Lamothe) - Richard Gauthier
TTITLE2=Que la lune est belle ce soir - Julie Daraîche
TTITLE3=Nous on aime la musique country - Renée, Marcel et Noëlla Martel
TTITLE4=Ton enfant n'est pas le nôtre - Gilles Descoteaux
TTITLE5=Lucille (Hommage à Kenny Rogers) - Patrick Normand
TTITLE6=Le Cow-boy des temps modernes - Georges Hamel
TTITLE7=À ma mère - Paul Daraîche
TTITLE8=Un coin du Ciel - Marcel Martel
TTITLE9=L'écho - Nicole Dumont
EXTD=YEAR: 1992
EXTT0=
EXTT1=
EXTT2=
EXTT3=
EXTT4=
EXTT5=
EXTT6=
EXTT7=
EXTT8=
EXTT9=
PLAYORDER=
